PathFileType	4	(X/Y/Z)	OpenSim_Sub02_EMGStiffKnee_Gyro.trc
DataRate	CameraRate	NumFrames	NumMarkers	Units	OrigDataRate	OrigDataStartFrame	OrigNumFrames
100	100	40	8	m	100	1973	7890
Frame#	Time	torso_imu_offset_imu	pelvis_imu_offset_imu	tibia_r_imu_offset_imu	femur_r_imu_offset_imu	tibia_l_imu_offset_imu	femur_l_imu_offset_imu	toes_r_imu_offset_imu	toes_l_imu_offset_imu
				X1	Y1	Z1	X2	Y2	Z2	X3	Y3	Z3	X4	Y4	Z4	X5	Y5	Z5	X6	Y6	Z6	X7	Y7	Z7	X8		Y8	Z8	

1973	19.72000000	0.35170398	0.24236080	-0.09782030	0.51575210	-0.05183614	0.18832474	0.59888776	-0.17409426	-1.63123827	-0.21362113	-0.77085587	-1.03289542	-0.00822398	0.70861812	2.25476243	-0.91720365	0.45405390	-0.76210343	-0.15596734	-0.40031402	0.04511337	-1.59336941	-5.51483775	2.04409949
1974	19.73000000	0.42792722	0.20796778	-0.04391683	0.55717713	0.01136577	0.26007309	0.45937583	-0.28830883	-1.49622342	-0.38423405	-0.75550327	-1.43258535	-0.16703554	0.72416171	2.25141532	-0.84000274	0.41281978	-0.85479673	0.01765375	-0.42025456	0.05381805	-1.16615186	-5.85168336	1.89850574
1975	19.74000000	0.48197051	0.17848631	0.00302695	0.53750434	0.02214133	0.26664795	0.81256212	-0.15363460	-1.01343833	-0.56717260	-0.73643346	-1.77453426	0.01289735	0.67600893	2.15061140	-0.69155105	0.29323172	-0.95729312	-0.16504435	-0.50361449	0.10575663	-0.62835623	-5.61098835	1.86765302
1976	19.75000000	0.51218773	0.14880023	0.05665586	0.49125644	0.02952963	0.22116644	0.80341451	-0.50737318	-0.55883269	-0.54206675	-0.64260174	-1.89597544	0.88186709	0.52645174	1.93315021	-0.43166440	0.09103363	-1.08329184	-0.04281496	-0.45019237	0.16962193	-0.61800520	-4.63895629	1.73746397
1977	19.76000000	0.51371640	0.12176515	0.12528881	0.46957608	0.03237857	0.12528762	0.36022736	-0.69585064	-0.40359205	-0.32999917	-0.43923797	-1.71703780	1.31792845	0.56710280	1.83202726	-0.12340092	-0.11234224	-1.22950916	-0.36011351	-0.54115179	0.10444796	0.14270316	-3.86019701	1.55770845
1978	19.77000000	0.50028941	0.10342085	0.16773366	0.45509464	0.04775284	0.00165820	0.03849442	-0.28523406	-0.39373344	-0.23451115	-0.31233527	-1.37683927	1.08210365	0.51198077	1.93249920	0.06445171	-0.20827425	-1.33557558	-0.09152881	-0.51583007	0.06298679	1.18674751	-2.68361697	1.27730829
1979	19.78000000	0.47389568	0.11008035	0.16413662	0.40499081	0.06681264	-0.13125925	-0.66101602	-0.32063988	-0.32223187	-0.18307824	-0.41932218	-1.03788342	0.88149140	0.21058105	2.02248720	0.00781914	-0.17730872	-1.33439725	-0.05750082	-0.51691566	0.10651982	2.05652929	-1.22430001	0.81679073
1980	19.79000000	0.42926526	0.12609736	0.13458848	0.33749939	0.06046328	-0.21761040	-0.90891441	-0.32835499	-0.47909495	0.04332931	-0.60365427	-0.84950785	0.99225833	0.01014853	1.90182849	-0.23987680	-0.11701673	-1.25020481	-0.17152155	-0.59115551	0.18163060	2.00629368	-0.43284770	0.59344128
1981	19.80000000	0.38174301	0.12991645	0.09999296	0.28321711	0.02113170	-0.24728515	-0.61501893	-0.20295676	-0.86190518	0.43395573	-0.63882355	-0.83656641	1.31048892	0.05003333	1.41572919	-0.50511551	-0.11899074	-1.10683462	-0.23563351	-0.65000753	0.21829500	1.54895203	0.87806624	0.19976291
1982	19.81000000	0.34275460	0.12979149	0.05979819	0.24730164	-0.02903871	-0.25467616	-0.52329109	-0.28017911	-0.93257506	0.76004018	-0.51353826	-0.90779812	1.58021849	0.18735763	0.63717673	-0.62457333	-0.17472910	-0.96267874	-0.30299395	-0.66054364	0.20453649	1.04654047	1.65085528	-0.20631178
1983	19.82000000	0.30728226	0.12017776	0.00989007	0.21332270	-0.07470717	-0.24516479	-0.26427363	-0.36272585	-0.61338472	0.80374756	-0.41305069	-0.97921414	1.54915214	0.23413700	-0.20071444	-0.59927695	-0.19909876	-0.87212354	-0.14937015	-0.68868735	0.19609405	0.78736688	1.66582242	-0.61073449
1984	19.83000000	0.28231204	0.10656934	-0.04701517	0.22296928	-0.11992896	-0.23599418	-0.01125666	-0.33037516	-0.31338859	0.59906536	-0.45335027	-1.03351839	1.17965204	0.08536042	-0.90041794	-0.58871861	-0.20847520	-0.79867304	-0.16978706	-0.72987672	0.21316993	0.81077406	1.86304724	-1.02721174
1985	19.84000000	0.26673917	0.08512785	-0.10267633	0.29623951	-0.15553908	-0.21246161	0.10117668	-0.29347427	-0.29028767	0.31757258	-0.54436965	-1.08399433	0.86260597	-0.27882456	-1.35638738	-0.67220974	-0.26023581	-0.74546271	-0.22820099	-0.73158521	0.22370506	0.79616515	2.10822746	-1.35334820
1986	19.85000000	0.25249461	0.06229107	-0.13432457	0.38792830	-0.16345585	-0.16760318	0.06741456	-0.19965954	-0.43913763	0.03005822	-0.57485919	-1.13966427	0.64622887	-0.72959557	-1.62223125	-0.75184901	-0.32109085	-0.71809328	-0.19449891	-0.77300147	0.20839366	0.72038907	2.55062610	-1.61685871
1987	19.86000000	0.26212901	0.04366527	-0.14759010	0.48481483	-0.15605949	-0.12273866	-0.04069964	-0.15867415	-0.55584005	-0.21416353	-0.53620299	-1.20041833	0.37264792	-1.05523616	-1.81302211	-0.72936457	-0.35276954	-0.70219305	-0.16230001	-0.77437754	0.19627806	0.64444174	3.06889886	-1.77851569
1988	19.87000000	0.27586932	0.02765586	-0.13860284	0.56992848	-0.12695464	-0.07248098	-0.05356110	-0.13693802	-0.55292807	-0.38202460	-0.48104702	-1.21866703	0.04113700	-1.21051205	-1.97916593	-0.63779598	-0.32124017	-0.73293362	-0.11052011	-0.75316120	0.18285537	0.65719765	3.60559433	-1.84185240
1989	19.88000000	0.28849240	0.02730146	-0.11114276	0.62111182	-0.07733613	-0.03200588	-0.00767804	-0.14342876	-0.48503097	-0.48314951	-0.41825374	-1.19996681	-0.41845678	-1.28143214	-2.14421066	-0.52725014	-0.25375469	-0.78980352	-0.12287296	-0.78616533	0.15510608	0.81278517	4.12834583	-1.83459466
1990	19.89000000	0.30923069	0.03903249	-0.07960702	0.64479723	-0.02253206	-0.00253618	0.01465398	-0.14487425	-0.39263417	-0.53735018	-0.34623925	-1.16027899	-0.84881704	-1.34206464	-2.33911356	-0.41539890	-0.23646800	-0.86726853	-0.10517935	-0.73062757	0.11871015	1.04616687	4.63800923	-1.78802130
1991	19.90000000	0.32887255	0.05107462	-0.04557438	0.64829803	0.04515875	0.01654084	-0.03023698	-0.14970436	-0.36000627	-0.54339262	-0.28917320	-1.09741868	-0.98331774	-1.38345588	-2.56357814	-0.29617893	-0.28387088	-0.95750660	-0.06654753	-0.66511105	0.09844944	1.16594572	5.08526843	-1.70524119
1992	19.91000000	0.35376703	0.06780813	0.00239681	0.66538783	0.07764790	0.03470575	0.00682191	-0.12786929	-0.41085815	-0.47990888	-0.28654039	-1.00891413	-0.83033797	-1.37770014	-2.81344029	-0.12997444	-0.35163685	-1.02885886	-0.06821839	-0.64461968	0.08250472	1.06709903	5.27444582	-1.60183489
1993	19.92000000	0.39339679	0.08165096	0.05414380	0.69625356	0.05478945	0.06021387	0.05593508	-0.07215540	-0.49501532	-0.31757661	-0.37051292	-0.88695069	-0.58508658	-1.34637339	-3.09662462	0.13077349	-0.40351510	-1.06976272	-0.10316825	-0.59765698	0.07119598	0.80930169	5.21302133	-1.52784344
1994	19.93000000	0.43039239	0.07527483	0.09272602	0.68617589	0.05394224	0.07624984	-0.04765046	-0.05911651	-0.59601304	-0.09777271	-0.46854669	-0.74539915	-0.34701456	-1.34585975	-3.36289527	0.50378508	-0.42773667	-1.05719390	-0.06067248	-0.58250283	0.05028200	0.53614593	5.04413378	-1.54310433
1995	19.94000000	0.45346598	0.06936628	0.11896753	0.65602871	0.05147881	0.08606871	-0.04204445	-0.04296844	-0.65645542	0.09585264	-0.48864742	-0.67816036	-0.12638665	-1.44570067	-3.54105113	0.89863836	-0.44191186	-1.03304134	-0.06067555	-0.58269017	0.02237072	0.38194471	4.78704987	-1.63935406
1996	19.95000000	0.45098790	0.07113831	0.14371162	0.60129490	0.02258044	0.08939668	0.05114057	-0.05339135	-0.66126793	0.28226372	-0.43991452	-0.70461696	-0.03672876	-1.52845189	-3.58196489	1.14688346	-0.44097104	-1.02511968	-0.04862724	-0.56565612	-0.00660683	0.32734529	4.51860362	-1.74693080
1997	19.96000000	0.43508386	0.08628896	0.16147391	0.52602731	0.00234580	0.08559651	0.01174052	-0.07853173	-0.67027442	0.48947041	-0.39499616	-0.72729083	-0.10729246	-1.51166798	-3.52140042	1.16055410	-0.41785408	-0.99248112	-0.03346622	-0.56110367	-0.04928961	0.35362739	4.24883891	-1.81868161
1998	19.97000000	0.42660016	0.10422565	0.17280114	0.44554107	-0.01607524	0.06509961	-0.10027364	-0.07747899	-0.73297422	0.64729489	-0.41090888	-0.70574389	-0.32173918	-1.50057587	-3.45853651	1.03281330	-0.34467253	-0.94863735	0.00122542	-0.56807180	-0.06440297	0.41329585	3.99307003	-1.88209357
1999	19.98000000	0.40845629	0.12060872	0.18111162	0.37569887	-0.04856350	0.03265198	-0.22906074	-0.05151307	-0.80110877	0.80910696	-0.47477662	-0.63400593	-0.66580145	-1.56044629	-3.45148086	0.85531934	-0.18710498	-0.88724978	-0.02891369	-0.56489653	-0.06326435	0.49118107	3.80154005	-1.99423944
2000	19.99000000	0.39583060	0.12463915	0.16864947	0.32799391	-0.08155123	-0.00632667	-0.42776834	-0.03682480	-0.86019737	1.05675411	-0.53940538	-0.54615336	-1.01219788	-1.68478648	-3.48230573	0.65430954	0.00011267	-0.84224109	-0.02486637	-0.54708677	-0.04510610	0.49144549	3.63902416	-2.16590747
2001	20	0.39314064	0.11303433	0.13544771	0.28528998	-0.11725205	-0.04742429	-0.55097415	-0.00409742	-0.95369448	1.23378269	-0.55781729	-0.45602552	-1.35442294	-1.81727453	-3.48664104	0.48247485	0.12256399	-0.86693559	-0.06313126	-0.56127817	-0.02863439	0.45685805	3.37253073	-2.36332573
2002	20.01000000	0.38269063	0.08177835	0.10745582	0.24112093	-0.14380618	-0.07700901	-0.49189330	0.06277282	-1.03951055	1.17950709	-0.50008254	-0.38806669	-1.69735533	-1.81091209	-3.43423043	0.30397180	0.14071730	-0.90412134	-0.05001384	-0.54501017	-0.05653462	0.46448272	2.99436373	-2.60335446
2003	20.02000000	0.37323049	0.06392160	0.07591595	0.21648541	-0.15850605	-0.11194403	-0.29447412	0.07397693	-1.07716066	0.96338540	-0.41708195	-0.35479911	-1.86384463	-1.66920532	-3.37346349	0.11566058	0.05156980	-0.91170971	0.01243059	-0.58775977	-0.10105070	0.66741693	2.51788301	-2.84454959
2004	20.03000000	0.35468264	0.06016942	0.03574581	0.18549408	-0.18322541	-0.12571241	-0.05358753	0.06708816	-1.09153099	0.75096290	-0.37069033	-0.36209814	-1.68611555	-1.51297767	-3.35643971	0.05946928	-0.08760396	-0.87152357	0.05979243	-0.64077242	-0.15211020	0.93897892	2.08686882	-2.89098376
2005	20.04000000	0.33409387	0.03932705	0.00819058	0.12375192	-0.24034018	-0.12114832	0.15266378	0.06367131	-1.09940404	0.60671934	-0.34985324	-0.37470511	-1.22334889	-1.25757499	-3.31864085	0.07441511	-0.22028107	-0.76298757	0.05609948	-0.68611697	-0.21125587	0.58987896	2.03998563	-2.64209982
2006	20.05000000	0.31349552	0.01454955	-0.00098050	0.04368064	-0.29231715	-0.10699224	0.28120638	0.05304134	-1.12004096	0.49441491	-0.28067638	-0.32662772	-0.51816484	-1.00356818	-3.18397534	0.05080545	-0.34741019	-0.63775268	0.09161221	-0.74632507	-0.28253958	0.17666769	2.20827951	-2.15180575
2007	20.06000000	0.27257215	0.01071342	0.00558806	-0.05309370	-0.28931642	-0.08733253	0.22827530	0.03385956	-1.16432709	0.38192680	-0.18535485	-0.22885798	0.00990928	-1.00672528	-2.89186724	0.01143053	-0.48840632	-0.57446388	0.10905067	-0.80950771	-0.33668070	-0.15093195	2.00129075	-1.52382186
2008	20.07000000	0.21447427	0.01783270	0.02038691	-0.17102949	-0.27553544	-0.07286493	0.02306162	0.02961327	-1.23314504	0.28816239	-0.15543917	-0.15772551	-0.17244706	-1.06703588	-2.45079481	-0.16556392	-0.59239646	-0.59009036	0.11878708	-0.88278718	-0.36531244	-0.44194717	1.51223199	-0.95668547
2009	20.08000000	0.14866386	0.02591210	0.04234985	-0.27054229	-0.30606056	-0.06484530	-0.22580299	0.04411842	-1.28352208	0.19638200	-0.17541240	-0.13443881	-0.50781131	-1.02484498	-1.98953688	-0.44100928	-0.58392173	-0.64865254	0.09818941	-0.97041778	-0.36426409	0.02742984	1.07207553	-0.57506197
2010	20.09000000	0.09206228	0.03476242	0.04705236	-0.32742524	-0.37802360	-0.04249932	-0.41390197	0.03494525	-1.31958628	0.04943215	-0.15306510	-0.12428758	-0.50905653	-0.86340552	-1.58293435	-0.58694089	-0.48685414	-0.71995501	0.02763780	-1.07339434	-0.35245058	0.34807902	0.71005230	-0.35035303
2011	20.10000000	0.02828135	0.04091606	0.01547395	-0.37928232	-0.44675912	-0.01232531	-0.50516837	0.02753060	-1.39107692	-0.22819076	-0.04422759	-0.10287780	-0.38216887	-0.67637570	-1.24291857	-0.55837843	-0.40912851	-0.79441128	0.05470581	-1.16279276	-0.34688940	0.19048963	0.31996573	-0.27344431
2012	20.11000000	-0.03615387	0.04907107	-0.02830658	-0.43850225	-0.50084288	0.02179186	-0.52359091	0.03594038	-1.47714068	-0.59008865	0.08009779	-0.08968938	-0.28991936	-0.55940303	-0.97045626	-0.49261216	-0.34484135	-0.82088656	0.10699197	-1.29395144	-0.32786679	0.15209600	-0.03695687	-0.32694362
